<svg width="16" height="16" viewBox="0 0 16 16" fill="none" xmlns="http://www.w3.org/2000/svg">
<rect width="16" height="16" fill="#EEEFFB"/>
<path d="M11.0441 14.666H11.0627C11.4147 14.666 11.7474 14.5273 11.9994 14.2753L13.8074 12.4673C13.8694 12.4055 13.9185 12.332 13.9521 12.2511C13.9856 12.1703 14.0029 12.0836 14.0029 11.996C14.0029 11.9085 13.9856 11.8218 13.9521 11.7409C13.9185 11.66 13.8694 11.5865 13.8074 11.5247L11.1407 8.85801C11.0789 8.79605 11.0054 8.74689 10.9245 8.71335C10.8436 8.67981 10.757 8.66254 10.6694 8.66254C10.5818 8.66254 10.4951 8.67981 10.4143 8.71335C10.3334 8.74689 10.2599 8.79605 10.1981 8.85801L9.1354 9.92068C8.64273 9.77401 7.7234 9.44068 7.14073 8.85801C6.55806 8.27534 6.22473 7.35601 6.07806 6.86334L7.14073 5.80068C7.20269 5.73882 7.25185 5.66535 7.28539 5.58447C7.31893 5.5036 7.3362 5.4169 7.3362 5.32934C7.3362 5.24179 7.31893 5.15509 7.28539 5.07421C7.25185 4.99334 7.20269 4.91987 7.14073 4.85801L4.47406 2.19134C4.34661 2.07105 4.17799 2.00403 4.00273 2.00403C3.82747 2.00403 3.65885 2.07105 3.5314 2.19134L1.72406 3.99934C1.47073 4.25268 1.32806 4.60068 1.3334 4.95601C1.34873 5.90534 1.60006 9.20268 4.19873 11.8013C6.7974 14.4 10.0947 14.6507 11.0441 14.666ZM4.0034 3.60534L5.7274 5.32934L4.8654 6.19134C4.78695 6.26957 4.72933 6.36618 4.69777 6.47238C4.66622 6.57857 4.66173 6.69097 4.68473 6.79934C4.70073 6.87601 5.09206 8.69401 6.19873 9.80068C7.3054 10.9073 9.1234 11.2987 9.20006 11.3147C9.30843 11.3378 9.42087 11.3334 9.52708 11.3018C9.6333 11.2702 9.72991 11.2126 9.80806 11.134L10.6701 10.272L12.3941 11.996L11.0567 13.3327C10.2247 13.3187 7.37806 13.0953 5.1414 10.858C2.8974 8.61401 2.68006 5.75734 2.66673 4.94201L4.0034 3.60534ZM13.3327 7.33268H14.6661C14.6661 3.91268 12.0841 1.33334 8.6594 1.33334V2.66668C11.3674 2.66668 13.3327 4.62868 13.3327 7.33268Z" fill="#8A8FB9"/>
<path d="M8.66602 5.33333C10.068 5.33333 10.666 5.93133 10.666 7.33333H11.9993C11.9993 5.18333 10.816 4 8.66602 4V5.33333Z" fill="#8A8FB9"/>
</svg>
