<svg width="16" height="14" viewBox="0 0 16 14" fill="none" xmlns="http://www.w3.org/2000/svg">
<g clip-path="url(#clip0_429_8456)">
<path d="M8 1.77279C8.49445 1.77279 8.9778 1.89609 9.38893 2.12709C9.80005 2.35809 10.1205 2.68642 10.3097 3.07056C10.4989 3.4547 10.5484 3.8774 10.452 4.2852C10.3555 4.693 10.1174 5.06759 9.76777 5.3616C9.41814 5.65561 8.97268 5.85583 8.48773 5.93694C8.00278 6.01806 7.50011 5.97643 7.04329 5.81731C6.58648 5.6582 6.19603 5.38874 5.92133 5.04303C5.64662 4.69731 5.5 4.29086 5.5 3.87507C5.5 3.31751 5.76339 2.78279 6.23223 2.38854C6.70108 1.99428 7.33696 1.77279 8 1.77279ZM8 0.931885C7.30777 0.931885 6.63108 1.1045 6.05551 1.4279C5.47993 1.7513 5.03133 2.21096 4.76642 2.74876C4.50152 3.28656 4.4322 3.87833 4.56725 4.44925C4.7023 5.02017 5.03564 5.5446 5.52513 5.95621C6.01461 6.36782 6.63825 6.64813 7.31719 6.7617C7.99612 6.87526 8.69985 6.81697 9.33939 6.59421C9.97893 6.37145 10.5256 5.99421 10.9101 5.51021C11.2947 5.02621 11.5 4.45717 11.5 3.87507C11.5 3.09449 11.1313 2.34588 10.4749 1.79392C9.8185 1.24197 8.92826 0.931885 8 0.931885Z" fill="white"/>
<path d="M13 12.7046H12V10.6024C12 10.3263 11.9353 10.0529 11.8097 9.79786C11.6841 9.5428 11.4999 9.31104 11.2678 9.11583C11.0356 8.92062 10.76 8.76576 10.4567 8.66011C10.1534 8.55447 9.8283 8.50009 9.5 8.50009H6.5C5.83696 8.50009 5.20107 8.72158 4.73223 9.11583C4.26339 9.51008 4 10.0448 4 10.6024V12.7046H3V10.6024C3 9.82178 3.36875 9.07317 4.02513 8.52122C4.6815 7.96926 5.57174 7.65918 6.5 7.65918H9.5C10.4283 7.65918 11.3185 7.96926 11.9749 8.52122C12.6313 9.07317 13 9.82178 13 10.6024V12.7046Z" fill="white"/>
</g>
<defs>
<clipPath id="clip0_429_8456">
<rect width="16" height="13.4545" fill="white" transform="translate(0 0.0909424)"/>
</clipPath>
</defs>
</svg>
