<svg width="40" height="40" viewBox="0 0 40 40" fill="none" xmlns="http://www.w3.org/2000/svg">
<path d="M26.3285 38.5224V4.76859C26.3285 3.9525 25.6669 3.29102 24.8508 3.29102H4.21488C3.39879 3.29102 2.7373 3.95258 2.7373 4.76859V38.5224C2.7373 39.3385 3.39887 40 4.21488 40H24.8509C25.6669 40 26.3285 39.3384 26.3285 38.5224Z" fill="#FB2E86"/>
<path d="M29.6957 3.29095H24.7505C25.5666 3.29095 26.2281 3.95252 26.2281 4.76853V38.5224C26.2281 39.3385 25.5666 39.9999 24.7505 39.9999H29.6957C30.5118 39.9999 31.1734 39.3384 31.1734 38.5224V4.76861C31.1734 3.95252 30.5118 3.29095 29.6957 3.29095Z" fill="#FB2E86"/>
<path d="M5.15234 37.0567V6.23424C5.15234 5.94252 5.38883 5.70612 5.68047 5.70612H28.2298C28.5216 5.70612 28.758 5.9426 28.758 6.23424V37.0567C28.758 37.3485 28.5215 37.5849 28.2298 37.5849H5.68047C5.38875 37.5849 5.15234 37.3485 5.15234 37.0567Z" fill="#F5F5F5"/>
<path d="M28.2299 5.70612H23.2847C23.5764 5.70612 23.8128 5.9426 23.8128 6.23424V37.0567C23.8128 37.3485 23.5763 37.5849 23.2847 37.5849H28.2299C28.5216 37.5849 28.758 37.3484 28.758 37.0567V6.23424C28.758 5.9426 28.5216 5.70612 28.2299 5.70612Z" fill="#EAEAEA"/>
<path d="M20.0944 1.83891V1.06102C20.0944 0.475078 19.6194 0 19.0333 0H14.8773C14.2913 0 13.8163 0.475078 13.8163 1.06102V1.83891C13.8163 2.07852 13.622 2.27281 13.3824 2.27281H11.6527C11.0773 2.27281 10.6108 2.7393 10.6108 3.31469V5.70609H23.2998V3.31469C23.2998 2.7393 22.8333 2.27281 22.2579 2.27281H20.5283C20.2887 2.27281 20.0944 2.07852 20.0944 1.83891Z" fill="#C2D0DA"/>
<path d="M8.22461 14.2806V9.62917C8.22461 9.11386 8.64242 8.69604 9.15773 8.69604H13.8091C14.3245 8.69604 14.7423 9.11386 14.7423 9.62917V14.2806C14.7423 14.7959 14.3245 15.2137 13.8091 15.2137H9.15773C8.64234 15.2137 8.22461 14.7959 8.22461 14.2806Z" fill="#FB2E86"/>
<path d="M8.22461 23.9712V19.3198C8.22461 18.8045 8.64242 18.3867 9.15773 18.3867H13.8091C14.3245 18.3867 14.7423 18.8045 14.7423 19.3198V23.9712C14.7423 24.4865 14.3245 24.9043 13.8091 24.9043H9.15773C8.64234 24.9043 8.22461 24.4865 8.22461 23.9712Z" fill="#FB2E86"/>
<path d="M8.22461 33.6617V29.0103C8.22461 28.495 8.64242 28.0772 9.15773 28.0772H13.8091C14.3245 28.0772 14.7423 28.495 14.7423 29.0103V33.6617C14.7423 34.1771 14.3245 34.5949 13.8091 34.5949H9.15773C8.64234 34.5949 8.22461 34.1771 8.22461 33.6617Z" fill="#FB2E86"/>
<path d="M11.0896 13.6206C11.0889 13.6206 11.0883 13.6206 11.0875 13.6206C10.8211 13.62 10.5683 13.4909 10.4114 13.2755L9.70653 12.3076C9.51028 12.038 9.56966 11.6605 9.83919 11.4642C10.1087 11.268 10.4863 11.3274 10.6825 11.5969L11.0911 12.1582L12.2861 10.5348C12.4837 10.2662 12.8615 10.2089 13.13 10.4065C13.3985 10.6041 13.4559 10.9819 13.2583 11.2505L11.7651 13.279C11.6077 13.493 11.3552 13.6206 11.0896 13.6206Z" fill="#F6F9F9"/>
<path d="M11.0895 23.5221C11.0887 23.5221 11.088 23.5221 11.0873 23.5221C10.8208 23.5214 10.5681 23.3924 10.4112 23.1768L9.70653 22.209C9.51028 21.9395 9.56966 21.5619 9.83919 21.3657C10.1087 21.1695 10.4863 21.2289 10.6825 21.4983L11.0911 22.0597L12.2861 20.4362C12.4837 20.1678 12.8615 20.1104 13.13 20.3079C13.3985 20.5055 13.4559 20.8834 13.2583 21.1519L11.7651 23.1804C11.6077 23.3946 11.3552 23.5221 11.0895 23.5221Z" fill="#F6F9F9"/>
<path d="M11.0895 33.0019C11.0888 33.0019 11.0881 33.0019 11.0874 33.0019C10.821 33.0012 10.5682 32.8723 10.4114 32.6569L9.70651 31.6888C9.51026 31.4193 9.56971 31.0418 9.83924 30.8455C10.1089 30.6493 10.4864 30.7088 10.6825 30.9783L11.0911 31.5395L12.2861 29.9161C12.4838 29.6476 12.8616 29.5902 13.13 29.7878C13.3985 29.9854 13.456 30.3633 13.2583 30.6318L11.7652 32.6603C11.6076 32.8743 11.3552 33.0019 11.0895 33.0019Z" fill="#F6F9F9"/>
<path d="M25.2102 11.2973H17.7481C17.4148 11.2973 17.1445 11.027 17.1445 10.6937C17.1445 10.3603 17.4148 10.0901 17.7481 10.0901H25.2102C25.5436 10.0901 25.8138 10.3603 25.8138 10.6937C25.8138 11.027 25.5436 11.2973 25.2102 11.2973Z" fill="#DDEAFB"/>
<path d="M21.4787 13.8197H17.7476C17.4143 13.8197 17.144 13.5494 17.144 13.2161C17.144 12.8827 17.4143 12.6125 17.7476 12.6125H21.4787C21.812 12.6125 22.0822 12.8827 22.0822 13.2161C22.0822 13.5494 21.812 13.8197 21.4787 13.8197Z" fill="#DDEAFB"/>
<path d="M22.7544 20.9879H17.7476C17.4143 20.9879 17.144 20.7177 17.144 20.3843C17.144 20.0509 17.4143 19.7807 17.7476 19.7807H22.7544C23.0877 19.7807 23.358 20.0509 23.358 20.3843C23.358 20.7177 23.0877 20.9879 22.7544 20.9879Z" fill="#DDEAFB"/>
<path d="M21.4787 23.5103H17.7476C17.4143 23.5103 17.144 23.2401 17.144 22.9067C17.144 22.5733 17.4143 22.3031 17.7476 22.3031H21.4787C21.812 22.3031 22.0822 22.5733 22.0822 22.9067C22.0822 23.2401 21.812 23.5103 21.4787 23.5103Z" fill="#DDEAFB"/>
<path d="M34.9145 15.7592L34.3218 14.9784L32.1043 13.5741L31.2518 13.4398L19.8968 31.383C19.6228 31.8157 19.4218 32.2904 19.3018 32.7883C20.6833 32.8054 21.9373 33.5994 22.5435 34.8411C22.9422 34.5197 23.2854 34.135 23.5594 33.7024L34.9145 15.7592Z" fill="#FC8086"/>
<path d="M36.5174 10.2338L35.5592 9.62696C34.8122 9.15391 33.8232 9.37618 33.3504 10.1233L32.4717 11.5118L32.752 12.0769L35.4184 13.7654L36.1344 13.8312L37.0136 12.4418C37.4861 11.6951 37.264 10.7066 36.5174 10.2338Z" fill="#8C9BA6"/>
<path d="M31.2529 13.4347L32.4736 11.5067L36.1369 13.8261L34.9163 15.7541L31.2529 13.4347Z" fill="#C9E2E7"/>
<path d="M22.5436 34.8412L19.3104 37.4467C18.8543 37.8142 18.1916 37.3946 18.3289 36.8252L19.3019 32.7884C20.6834 32.8054 21.9375 33.5996 22.5436 34.8412Z" fill="#7C8B96"/>
<path d="M21.6952 33.7226L33.5983 14.9259L32.5783 14.28L20.6753 33.0767C21.0487 33.2341 21.3933 33.4523 21.6952 33.7226Z" fill="#FB636F"/>
</svg>
