<svg width="8" height="8" viewBox="0 0 8 8" fill="none" xmlns="http://www.w3.org/2000/svg">
<rect x="0.0297852" width="7.74124" height="8" rx="3" fill="#19D16F"/>
<path d="M6.06451 2.40329C6.03452 2.37204 5.99885 2.34725 5.95954 2.33032C5.92024 2.3134 5.87808 2.30469 5.8355 2.30469C5.79292 2.30469 5.75076 2.3134 5.71145 2.33032C5.67214 2.34725 5.63647 2.37204 5.60649 2.40329L3.20348 4.88995L2.19389 3.84329C2.16276 3.81221 2.126 3.78777 2.08573 3.77137C2.04546 3.75497 2.00245 3.74692 1.95917 3.7477C1.91589 3.74847 1.87319 3.75805 1.83349 3.77588C1.79379 3.79371 1.75788 3.81945 1.7278 3.85162C1.69773 3.88379 1.67408 3.92177 1.65821 3.96339C1.64234 4.00501 1.63455 4.04945 1.6353 4.09418C1.63605 4.13891 1.64532 4.18304 1.66257 4.22407C1.67983 4.2651 1.70473 4.30221 1.73586 4.33329L2.97446 5.61329C3.00445 5.64453 3.04012 5.66933 3.07943 5.68625C3.11874 5.70317 3.16089 5.71189 3.20348 5.71189C3.24606 5.71189 3.28822 5.70317 3.32752 5.68625C3.36683 5.66933 3.4025 5.64453 3.43249 5.61329L6.06451 2.89329C6.09725 2.86207 6.12338 2.82419 6.14125 2.78202C6.15912 2.73986 6.16835 2.69432 6.16835 2.64829C6.16835 2.60225 6.15912 2.55672 6.14125 2.51455C6.12338 2.47238 6.09725 2.4345 6.06451 2.40329V2.40329Z" fill="white"/>
</svg>
