<svg width="40" height="40" viewBox="0 0 40 40" fill="none" xmlns="http://www.w3.org/2000/svg">
<g clip-path="url(#clip0_382_6109)">
<path d="M40 20C40 19.757 39.9956 19.515 39.9871 19.2741C39.605 8.56469 30.8027 0 20 0C9.19727 0 0.395 8.56469 0.0129687 19.2741C0.004375 19.515 0 19.757 0 20C0 31.0457 10.2736 39.2742 20 39.2742C29.9027 39.2742 40 31.0457 40 20Z" fill="#395093"/>
<path d="M20 38.5484C9.19742 38.5484 0.396719 29.9835 0.0145313 19.2742C0.00585938 19.5153 0 19.7569 0 20C0 31.0457 8.9543 40 20 40C31.0457 40 40 31.0457 40 20C40 19.7569 39.9941 19.5153 39.9855 19.2742C39.6033 29.9835 30.8026 38.5484 20 38.5484Z" fill="#3D559D"/>
<path d="M36.6734 19.2742C36.2934 10.394 28.9738 3.31116 20 3.31116C11.0262 3.31116 3.70665 10.394 3.32665 19.2742C3.31634 19.5149 3.32657 35.6274 20 35.6274C36.6734 35.6274 36.6837 19.5149 36.6734 19.2742Z" fill="white"/>
<path d="M19.9999 35.2373C11.0262 35.2373 3.70783 28.1543 3.32768 19.2742C3.31736 19.515 3.31104 19.7567 3.31104 20C3.31104 29.217 10.7829 36.6889 19.9999 36.6889C29.217 36.6889 36.6889 29.2171 36.6889 20C36.6889 19.7567 36.6824 19.515 36.6722 19.2742C36.2921 28.1544 28.9737 35.2373 19.9999 35.2373Z" fill="#D5E0F2"/>
<path d="M26.062 14.1446C25.5863 13.6755 24.8203 13.6807 24.3513 14.1563L21.5127 17.0342L21.7979 18.4043L23.1239 18.846L26.0738 15.8553C26.5428 15.3797 26.5376 14.6137 26.062 14.1446Z" fill="#405B6C"/>
<path d="M18.2876 17.1443L11.8499 11.4074C11.3511 10.9629 10.5865 11.007 10.142 11.5058C9.69756 12.0045 9.74154 12.7692 10.2404 13.2137L16.8048 19.0635L18.1727 18.6073L18.2876 17.1443Z" fill="#405B6C"/>
<path d="M28.5653 27.7998C28.428 27.7998 28.29 27.7533 28.1766 27.6581L20.5146 21.2223C20.2589 21.0075 20.2257 20.6259 20.4405 20.3702C20.6554 20.1143 21.0368 20.0811 21.2927 20.2961L28.9546 26.7319C29.2103 26.9468 29.2436 27.3283 29.0288 27.584C28.9092 27.7264 28.7378 27.7998 28.5653 27.7998Z" fill="#86DCFF"/>
<path d="M16.8047 19.0635L17.9344 20.0702L19.3852 19.5773L19.3065 18.0523L18.2875 17.1443C17.5785 17.5703 17.0419 18.2529 16.8047 19.0635Z" fill="#2D4456"/>
<path d="M21.5127 17.0342L20.5522 18.0079V19.9193H22.0652L23.124 18.846C22.833 18.0588 22.2528 17.4125 21.5127 17.0342Z" fill="#2D4456"/>
<path d="M21.9362 19.2741C21.6423 18.4905 20.8862 17.9327 20 17.9327C19.1137 17.9327 18.3577 18.4905 18.0638 19.2741C17.9791 19.4999 18.0582 21.3414 20 21.3414C21.9418 21.3414 22.0208 19.4999 21.9362 19.2741Z" fill="#395093"/>
<path d="M19.9999 20.6156C19.1136 20.6156 18.3579 20.0578 18.064 19.2742C17.9793 19.5 17.9326 19.7445 17.9326 20C17.9326 21.1417 18.8582 22.0671 19.9998 22.0671C21.1415 22.0671 22.067 21.1416 22.067 20C22.067 19.7445 22.0204 19.5 21.9357 19.2742C21.6418 20.0577 20.8861 20.6156 19.9999 20.6156Z" fill="#3D559D"/>
<path d="M20.6056 7.31039V5.43329C20.6056 5.0986 20.3343 4.82727 19.9996 4.82727C19.6649 4.82727 19.3936 5.0986 19.3936 5.43329V7.31039C19.3936 7.64508 19.6648 7.91641 19.9996 7.91641C20.3343 7.91641 20.6056 7.64508 20.6056 7.31039Z" fill="#405B6C"/>
<path d="M19.3936 32.6896V34.5667C19.3936 34.9014 19.6648 35.1728 19.9996 35.1728C20.3343 35.1728 20.6056 34.9014 20.6056 34.5667V32.6896C20.6056 32.3549 20.3343 32.0836 19.9996 32.0836C19.6649 32.0836 19.3936 32.3549 19.3936 32.6896Z" fill="#405B6C"/>
<path d="M34.5666 20.6061C34.9014 20.6061 35.1726 20.3347 35.1726 20.0001C35.1726 19.6654 34.9013 19.394 34.5666 19.394H32.6895C32.3548 19.394 32.0835 19.6654 32.0835 20.0001C32.0835 20.3347 32.3548 20.6061 32.6895 20.6061H34.5666Z" fill="#405B6C"/>
<path d="M5.43316 19.394C5.0984 19.394 4.82715 19.6654 4.82715 20.0001C4.82715 20.3347 5.0984 20.6061 5.43316 20.6061H7.31027C7.64504 20.6061 7.91629 20.3347 7.91629 20.0001C7.91629 19.6654 7.64496 19.394 7.31027 19.394H5.43316Z" fill="#405B6C"/>
</g>
<defs>
<clipPath id="clip0_382_6109">
<rect width="40" height="40" fill="white"/>
</clipPath>
</defs>
</svg>
