<svg width="25" height="25" viewBox="0 0 25 25" fill="none" xmlns="http://www.w3.org/2000/svg">
<circle cx="12.5" cy="12.5" r="12.5" fill="#37DAF3"/>
<path d="M19.7618 7.2911C19.2052 7.53777 18.6072 7.70443 17.9785 7.77977C18.6272 7.39163 19.1125 6.78074 19.3438 6.0611C18.7344 6.42309 18.0674 6.6779 17.3718 6.81443C16.9041 6.31501 16.2846 5.98398 15.6094 5.87275C14.9342 5.76151 14.2412 5.87629 13.638 6.19927C13.0348 6.52224 12.555 7.03534 12.2733 7.6589C11.9915 8.28246 11.9235 8.9816 12.0798 9.64777C10.845 9.58576 9.63693 9.2648 8.53413 8.7057C7.43133 8.14661 6.45841 7.36187 5.67851 6.40243C5.41184 6.86243 5.25851 7.39577 5.25851 7.96377C5.25821 8.4751 5.38413 8.97859 5.6251 9.42959C5.86606 9.88058 6.21462 10.2651 6.63985 10.5491C6.1467 10.5334 5.66443 10.4002 5.23318 10.1604V10.2004C5.23313 10.9176 5.4812 11.6127 5.9353 12.1678C6.3894 12.7228 7.02156 13.1037 7.72451 13.2458C7.26703 13.3696 6.7874 13.3878 6.32185 13.2991C6.52018 13.9162 6.90651 14.4558 7.42676 14.8424C7.947 15.229 8.57512 15.4432 9.22318 15.4551C8.12307 16.3187 6.76444 16.7872 5.36585 16.7851C5.1181 16.7852 4.87056 16.7707 4.62451 16.7418C6.04416 17.6545 7.69674 18.139 9.38451 18.1371C15.0978 18.1371 18.2212 13.4051 18.2212 9.3011C18.2212 9.16777 18.2178 9.0331 18.2118 8.89977C18.8194 8.46042 19.3438 7.91636 19.7605 7.2931L19.7618 7.2911Z" fill="white"/>
</svg>
