<svg width="24" height="21" viewBox="0 0 24 21" fill="none" xmlns="http://www.w3.org/2000/svg">
<path d="M2.5 4.14216C2.5 3.97489 2.57902 3.81447 2.71967 3.6962C2.86032 3.57792 3.05109 3.51147 3.25 3.51147H3.808C4.758 3.51147 5.328 4.04882 5.653 4.54832C5.87 4.88132 6.027 5.26729 6.15 5.61711C6.18327 5.6149 6.21663 5.61378 6.25 5.61375H18.748C19.578 5.61375 20.178 6.28143 19.95 6.95332L18.122 12.3427C17.9581 12.8261 17.6114 13.2514 17.1343 13.5543C16.6572 13.8572 16.0758 14.021 15.478 14.0212H9.53C8.92749 14.0212 8.34165 13.8548 7.86252 13.5476C7.3834 13.2404 7.0375 12.8094 6.878 12.3208L6.118 9.98984L4.858 6.41766L4.857 6.41093C4.701 5.93413 4.555 5.48761 4.337 5.15461C4.128 4.83086 3.96 4.77284 3.809 4.77284H3.25C3.05109 4.77284 2.86032 4.70639 2.71967 4.58812C2.57902 4.46984 2.5 4.30942 2.5 4.14216ZM7.573 9.68375L8.324 11.987C8.474 12.4428 8.967 12.7598 9.53 12.7598H15.478C15.7497 12.7598 16.014 12.6853 16.2309 12.5477C16.4478 12.4101 16.6054 12.2168 16.68 11.9971L18.417 6.87511H6.585L7.559 9.63918L7.573 9.68375Z" fill="white"/>
<path d="M11 16.5456C11 16.9916 10.7893 17.4194 10.4142 17.7348C10.0391 18.0502 9.53043 18.2274 9 18.2274C8.46957 18.2274 7.96086 18.0502 7.58579 17.7348C7.21071 17.4194 7 16.9916 7 16.5456C7 16.0995 7.21071 15.6718 7.58579 15.3564C7.96086 15.041 8.46957 14.8638 9 14.8638C9.53043 14.8638 10.0391 15.041 10.4142 15.3564C10.7893 15.6718 11 16.0995 11 16.5456ZM9.5 16.5456C9.5 16.4341 9.44732 16.3271 9.35355 16.2483C9.25979 16.1694 9.13261 16.1251 9 16.1251C8.86739 16.1251 8.74021 16.1694 8.64645 16.2483C8.55268 16.3271 8.5 16.4341 8.5 16.5456C8.5 16.6571 8.55268 16.764 8.64645 16.8429C8.74021 16.9217 8.86739 16.966 9 16.966C9.13261 16.966 9.25979 16.9217 9.35355 16.8429C9.44732 16.764 9.5 16.6571 9.5 16.5456Z" fill="white"/>
<path d="M18 16.5456C18 16.9916 17.7893 17.4194 17.4142 17.7348C17.0391 18.0502 16.5304 18.2274 16 18.2274C15.4696 18.2274 14.9609 18.0502 14.5858 17.7348C14.2107 17.4194 14 16.9916 14 16.5456C14 16.0995 14.2107 15.6718 14.5858 15.3564C14.9609 15.041 15.4696 14.8638 16 14.8638C16.5304 14.8638 17.0391 15.041 17.4142 15.3564C17.7893 15.6718 18 16.0995 18 16.5456ZM16.5 16.5456C16.5 16.4341 16.4473 16.3271 16.3536 16.2483C16.2598 16.1694 16.1326 16.1251 16 16.1251C15.8674 16.1251 15.7402 16.1694 15.6464 16.2483C15.5527 16.3271 15.5 16.4341 15.5 16.5456C15.5 16.6571 15.5527 16.764 15.6464 16.8429C15.7402 16.9217 15.8674 16.966 16 16.966C16.1326 16.966 16.2598 16.9217 16.3536 16.8429C16.4473 16.764 16.5 16.6571 16.5 16.5456Z" fill="white"/>
</svg>
