<svg width="25" height="25" viewBox="0 0 25 25" fill="none" xmlns="http://www.w3.org/2000/svg">
<circle cx="12.5" cy="12.5" r="12.5" fill="#FF27B7"/>
<path d="M17.9647 9.53688C17.958 9.03196 17.8635 8.53207 17.6854 8.05955C17.5309 7.66098 17.2951 7.29901 16.9928 6.99677C16.6906 6.69452 16.3286 6.45865 15.93 6.30422C15.4636 6.12912 14.9708 6.03444 14.4727 6.02422C13.8314 5.99555 13.628 5.98755 12 5.98755C10.372 5.98755 10.1634 5.98755 9.52671 6.02422C9.02882 6.03452 8.53628 6.12919 8.07005 6.30422C7.67142 6.45854 7.30939 6.69438 7.00714 6.99664C6.70488 7.2989 6.46904 7.66092 6.31471 8.05955C6.13927 8.52564 6.0448 9.01829 6.03538 9.51622C6.00671 10.1582 5.99805 10.3615 5.99805 11.9895C5.99805 13.6175 5.99805 13.8255 6.03538 14.4629C6.04538 14.9615 6.13938 15.4535 6.31471 15.9209C6.4693 16.3194 6.70531 16.6813 7.00767 16.9834C7.31003 17.2855 7.67209 17.5213 8.07071 17.6755C8.53567 17.8577 9.0283 17.9591 9.52738 17.9755C10.1694 18.0042 10.3727 18.0129 12.0007 18.0129C13.6287 18.0129 13.8374 18.0129 14.474 17.9755C14.9721 17.9657 15.465 17.8713 15.9314 17.6962C16.3298 17.5416 16.6917 17.3057 16.9939 17.0034C17.2962 16.7012 17.5321 16.3393 17.6867 15.9409C17.862 15.4742 17.956 14.9822 17.966 14.4829C17.9947 13.8415 18.0034 13.6382 18.0034 12.0095C18.002 10.3815 18.002 10.1749 17.9647 9.53688ZM11.996 15.0682C10.2934 15.0682 8.91405 13.6889 8.91405 11.9862C8.91405 10.2835 10.2934 8.90422 11.996 8.90422C12.8134 8.90422 13.5974 9.22893 14.1754 9.80691C14.7533 10.3849 15.078 11.1688 15.078 11.9862C15.078 12.8036 14.7533 13.5875 14.1754 14.1655C13.5974 14.7435 12.8134 15.0682 11.996 15.0682ZM15.2007 9.50888C14.8027 9.50888 14.482 9.18755 14.482 8.79022C14.482 8.69588 14.5006 8.60247 14.5367 8.51532C14.5728 8.42817 14.6257 8.34898 14.6924 8.28228C14.7591 8.21557 14.8383 8.16266 14.9255 8.12656C15.0126 8.09046 15.106 8.07188 15.2004 8.07188C15.2947 8.07188 15.3881 8.09046 15.4753 8.12656C15.5624 8.16266 15.6416 8.21557 15.7083 8.28228C15.775 8.34898 15.8279 8.42817 15.864 8.51532C15.9001 8.60247 15.9187 8.69588 15.9187 8.79022C15.9187 9.18755 15.5974 9.50888 15.2007 9.50888Z" fill="white"/>
<path d="M11.9961 13.9878C13.1018 13.9878 13.9981 13.0914 13.9981 11.9858C13.9981 10.8801 13.1018 9.98376 11.9961 9.98376C10.8905 9.98376 9.99414 10.8801 9.99414 11.9858C9.99414 13.0914 10.8905 13.9878 11.9961 13.9878Z" fill="white"/>
</svg>
