<svg width="23" height="20" viewBox="0 0 23 20" fill="none" xmlns="http://www.w3.org/2000/svg">
<ellipse cx="11.5187" cy="10.1118" rx="11.215" ry="9.75497" fill="#151875"/>
<path d="M16.4222 7.79955C16.4162 7.40552 16.3314 7.0154 16.1716 6.64665C16.0331 6.33561 15.8214 6.05313 15.5503 5.81726C15.2791 5.58138 14.9543 5.39731 14.5967 5.27679C14.1783 5.14015 13.7361 5.06626 13.2892 5.05828C12.7138 5.03591 12.5314 5.02966 11.0708 5.02966C9.61013 5.02966 9.42291 5.02966 8.8517 5.05828C8.40499 5.06632 7.96308 5.1402 7.54478 5.27679C7.18713 5.39722 6.86233 5.58127 6.59114 5.81715C6.31996 6.05304 6.10836 6.33556 5.9699 6.64665C5.81249 7.01038 5.72773 7.39485 5.71929 7.78343C5.69357 8.28444 5.68579 8.44312 5.68579 9.71361C5.68579 10.9841 5.68579 11.1464 5.71929 11.6438C5.72826 12.033 5.81259 12.4169 5.9699 12.7816C6.1086 13.0926 6.32035 13.375 6.59162 13.6108C6.8629 13.8466 7.18774 14.0306 7.54538 14.151C7.96254 14.2931 8.40452 14.3723 8.8523 14.3851C9.4283 14.4074 9.61073 14.4142 11.0714 14.4142C12.532 14.4142 12.7192 14.4142 13.2904 14.3851C13.7373 14.3774 14.1795 14.3037 14.5979 14.1671C14.9554 14.0464 15.2801 13.8623 15.5513 13.6264C15.8224 13.3906 16.0341 13.1082 16.1728 12.7972C16.3301 12.433 16.4145 12.0491 16.4234 11.6594C16.4492 11.1589 16.4569 11.0002 16.4569 9.72922C16.4557 8.45873 16.4557 8.29745 16.4222 7.79955V7.79955ZM11.0672 12.1162C9.53955 12.1162 8.30201 11.0398 8.30201 9.71101C8.30201 8.38225 9.53955 7.30582 11.0672 7.30582C11.8005 7.30582 12.5039 7.55923 13.0224 8.01029C13.541 8.46135 13.8323 9.07311 13.8323 9.71101C13.8323 10.3489 13.541 10.9607 13.0224 11.4117C12.5039 11.8628 11.8005 12.1162 11.0672 12.1162V12.1162ZM13.9424 7.7777C13.5853 7.7777 13.2976 7.52694 13.2976 7.21686C13.2976 7.14324 13.3143 7.07034 13.3467 7.00233C13.379 6.93432 13.4265 6.87252 13.4864 6.82046C13.5462 6.76841 13.6173 6.72712 13.6955 6.69894C13.7736 6.67077 13.8575 6.65627 13.9421 6.65627C14.0267 6.65627 14.1105 6.67077 14.1887 6.69894C14.2669 6.72712 14.338 6.76841 14.3978 6.82046C14.4577 6.87252 14.5051 6.93432 14.5375 7.00233C14.5699 7.07034 14.5866 7.14324 14.5866 7.21686C14.5866 7.52694 14.2983 7.7777 13.9424 7.7777Z" fill="white"/>
<path d="M11.0667 11.2731C12.0587 11.2731 12.8629 10.5737 12.8629 9.71079C12.8629 8.84793 12.0587 8.14844 11.0667 8.14844C10.0747 8.14844 9.27051 8.84793 9.27051 9.71079C9.27051 10.5737 10.0747 11.2731 11.0667 11.2731Z" fill="white"/>
</svg>
