<svg width="14" height="10" viewBox="0 0 14 10" fill="none" xmlns="http://www.w3.org/2000/svg">
<path d="M11.9 0H2.1C1.54305 0 1.0089 0.197544 0.615076 0.549175C0.221249 0.900806 0 1.37772 0 1.875V8.125C0 8.62228 0.221249 9.09919 0.615076 9.45083C1.0089 9.80246 1.54305 10 2.1 10H11.9C12.457 10 12.9911 9.80246 13.3849 9.45083C13.7788 9.09919 14 8.62228 14 8.125V1.875C14 1.37772 13.7788 0.900806 13.3849 0.549175C12.9911 0.197544 12.457 0 11.9 0ZM2.1 1.25H11.9C12.0857 1.25 12.2637 1.31585 12.395 1.43306C12.5263 1.55027 12.6 1.70924 12.6 1.875L7 4.925L1.4 1.875C1.4 1.70924 1.47375 1.55027 1.60503 1.43306C1.7363 1.31585 1.91435 1.25 2.1 1.25ZM12.6 8.125C12.6 8.29076 12.5263 8.44973 12.395 8.56694C12.2637 8.68415 12.0857 8.75 11.9 8.75H2.1C1.91435 8.75 1.7363 8.68415 1.60503 8.56694C1.47375 8.44973 1.4 8.29076 1.4 8.125V3.3L6.636 6.15625C6.74241 6.21111 6.86312 6.23998 6.986 6.23998C7.10888 6.23998 7.22959 6.21111 7.336 6.15625L12.6 3.3V8.125Z" fill="#8A8FB9"/>
</svg>
