<svg width="23" height="20" viewBox="0 0 23 20" fill="none" xmlns="http://www.w3.org/2000/svg">
<ellipse cx="11.4486" cy="10.1118" rx="11.215" ry="9.75497" fill="#151875"/>
<path d="M17.9649 6.04709C17.4655 6.23959 16.929 6.36965 16.3649 6.42844C16.9469 6.12554 17.3823 5.64881 17.5899 5.0872C17.0431 5.3697 16.4447 5.56855 15.8206 5.6751C15.401 5.28535 14.8451 5.02702 14.2394 4.94021C13.6336 4.8534 13.0119 4.94298 12.4707 5.19503C11.9294 5.44707 11.499 5.8475 11.2462 6.33412C10.9935 6.82075 10.9324 7.36635 11.0727 7.88623C9.96476 7.83784 8.88091 7.58736 7.89148 7.15104C6.90205 6.71472 6.02915 6.10232 5.32943 5.35358C5.09018 5.71256 4.95261 6.12877 4.95261 6.57204C4.95234 6.97108 5.06532 7.36401 5.28151 7.71596C5.4977 8.06791 5.81043 8.36801 6.19194 8.58962C5.74949 8.57738 5.3168 8.47339 4.92988 8.28631V8.31753C4.92984 8.8772 5.15241 9.41964 5.55982 9.85283C5.96724 10.286 6.53441 10.5832 7.1651 10.6941C6.75465 10.7907 6.32433 10.8049 5.90663 10.7357C6.08457 11.2173 6.43119 11.6384 6.89795 11.9401C7.36472 12.2418 7.92826 12.409 8.5097 12.4183C7.52268 13.0922 6.30372 13.4578 5.04891 13.4562C4.82663 13.4562 4.60454 13.4449 4.38379 13.4224C5.65749 14.1347 7.14018 14.5127 8.65444 14.5113C13.7804 14.5113 16.5827 10.8184 16.5827 7.61569C16.5827 7.51163 16.5797 7.40654 16.5743 7.30249C17.1194 6.95962 17.5899 6.53504 17.9638 6.04865L17.9649 6.04709V6.04709Z" fill="white"/>
</svg>
