<svg width="16" height="15" viewBox="0 0 16 15" fill="none" xmlns="http://www.w3.org/2000/svg">
<path d="M13.4401 3.51634C12.7323 2.92098 11.7939 2.559 10.7956 2.49625C9.79726 2.43349 8.8053 2.67412 8.0001 3.17437C7.15187 2.64383 6.0961 2.40326 5.04538 2.5011C3.99467 2.59894 3.02706 3.02792 2.33742 3.70166C1.64777 4.37541 1.28732 5.24386 1.32864 6.13213C1.36996 7.02041 1.80998 7.86253 2.5601 8.48891L7.52677 12.6654C7.58874 12.718 7.66248 12.7597 7.74372 12.7881C7.82496 12.8166 7.91209 12.8313 8.0001 12.8313C8.08811 12.8313 8.17525 12.8166 8.25649 12.7881C8.33773 12.7597 8.41146 12.718 8.47344 12.6654L13.4401 8.48891C13.8285 8.16249 14.1367 7.77489 14.3469 7.34828C14.5571 6.92168 14.6654 6.46441 14.6654 6.00262C14.6654 5.54084 14.5571 5.08357 14.3469 4.65697C14.1367 4.23036 13.8285 3.84276 13.4401 3.51634V3.51634ZM12.5001 7.69846L8.0001 11.4769L3.5001 7.69846C3.10355 7.36361 2.83342 6.93774 2.72359 6.47429C2.61376 6.01083 2.66912 5.53042 2.88274 5.09332C3.09635 4.65622 3.4587 4.2819 3.92433 4.01731C4.38996 3.75272 4.93814 3.60964 5.5001 3.60603C6.25084 3.60758 6.97017 3.85962 7.5001 4.30679C7.56208 4.35934 7.63581 4.40104 7.71705 4.4295C7.79829 4.45796 7.88543 4.47262 7.97344 4.47262C8.06144 4.47262 8.14858 4.45796 8.22982 4.4295C8.31106 4.40104 8.38479 4.35934 8.44677 4.30679C8.99232 3.90926 9.6971 3.70086 10.4185 3.72377C11.1398 3.74669 11.8239 3.99921 12.3322 4.43023C12.8405 4.86125 13.1352 5.43856 13.1564 6.04534C13.1777 6.65211 12.924 7.24302 12.4468 7.69846H12.5001Z" fill="white"/>
</svg>
