<svg width="24" height="22" viewBox="0 0 24 22" fill="none" xmlns="http://www.w3.org/2000/svg">
<g clip-path="url(#clip0_463_3288)">
<path d="M21.7099 20.4899L17.9999 16.8099C19.44 15.0143 20.1374 12.7352 19.9487 10.4412C19.76 8.14716 18.6996 6.01264 16.9854 4.4765C15.2713 2.94036 13.0337 2.11937 10.7328 2.18233C8.43194 2.24529 6.24263 3.18742 4.61505 4.815C2.98747 6.44258 2.04534 8.63189 1.98237 10.9328C1.91941 13.2337 2.74041 15.4712 4.27655 17.1854C5.81269 18.8995 7.94721 19.96 10.2412 20.1487C12.5352 20.3374 14.8143 19.64 16.6099 18.1999L20.2899 21.8799C20.3829 21.9736 20.4935 22.048 20.6153 22.0987C20.7372 22.1495 20.8679 22.1757 20.9999 22.1757C21.1319 22.1757 21.2626 22.1495 21.3845 22.0987C21.5063 22.048 21.6169 21.9736 21.7099 21.8799C21.8901 21.6934 21.9909 21.4442 21.9909 21.1849C21.9909 20.9255 21.8901 20.6763 21.7099 20.4899ZM10.9999 18.1999C9.61544 18.1999 8.26206 17.7893 7.11091 17.0201C5.95977 16.251 5.06256 15.1577 4.53275 13.8786C4.00293 12.5996 3.86431 11.1921 4.13441 9.83422C4.4045 8.47636 5.07119 7.22908 6.05016 6.25011C7.02912 5.27114 8.27641 4.60445 9.63427 4.33436C10.9921 4.06426 12.3996 4.20289 13.6787 4.7327C14.9578 5.26251 16.051 6.15972 16.8202 7.31086C17.5894 8.46201 17.9999 9.81539 17.9999 11.1999C17.9999 13.0564 17.2624 14.8368 15.9497 16.1496C14.6369 17.4624 12.8564 18.1999 10.9999 18.1999Z" fill="url(#paint0_linear_463_3288)"/>
</g>
<defs>
<linearGradient id="paint0_linear_463_3288" x1="1.979" y1="2.17896" x2="25.4288" y2="16.5759" gradientUnits="userSpaceOnUse">
<stop stop-color="#F3F9FF"/>
<stop offset="1" stop-color="#F1F0FF"/>
</linearGradient>
<clipPath id="clip0_463_3288">
<rect width="24" height="21.6" fill="white" transform="translate(0 0.199951)"/>
</clipPath>
</defs>
</svg>
