<svg width="69" height="12" viewBox="0 0 69 12" fill="none" xmlns="http://www.w3.org/2000/svg">
<path d="M10.642 4.13792L7.66664 3.7055L6.33656 1.00901C6.30024 0.935185 6.24047 0.875419 6.16664 0.839091C5.98149 0.747685 5.75649 0.823857 5.66391 1.00901L4.33383 3.7055L1.35844 4.13792C1.27641 4.14964 1.20141 4.18831 1.14399 4.2469C1.07457 4.31826 1.03631 4.41425 1.03763 4.51379C1.03895 4.61333 1.07973 4.70828 1.15102 4.77776L3.30375 6.87659L2.79516 9.84026C2.78323 9.9092 2.79086 9.98011 2.81718 10.0449C2.8435 10.1098 2.88746 10.1659 2.94407 10.207C3.00068 10.2481 3.06767 10.2726 3.13746 10.2776C3.20725 10.2825 3.27704 10.2679 3.33891 10.2352L6.00024 8.83597L8.66156 10.2352C8.73422 10.2739 8.8186 10.2867 8.89945 10.2727C9.10336 10.2375 9.24047 10.0442 9.20531 9.84026L8.69672 6.87659L10.8495 4.77776C10.908 4.72034 10.9467 4.64534 10.9584 4.56331C10.9901 4.35823 10.8471 4.16839 10.642 4.13792V4.13792Z" fill="#FFC416"/>
<path d="M25.642 4.13792L22.6666 3.7055L21.3366 1.00901C21.3002 0.935185 21.2405 0.875419 21.1666 0.839091C20.9815 0.747685 20.7565 0.823857 20.6639 1.00901L19.3338 3.7055L16.3584 4.13792C16.2764 4.14964 16.2014 4.18831 16.144 4.2469C16.0746 4.31826 16.0363 4.41425 16.0376 4.51379C16.0389 4.61333 16.0797 4.70828 16.151 4.77776L18.3038 6.87659L17.7952 9.84026C17.7832 9.9092 17.7909 9.98011 17.8172 10.0449C17.8435 10.1098 17.8875 10.1659 17.9441 10.207C18.0007 10.2481 18.0677 10.2726 18.1375 10.2776C18.2072 10.2825 18.277 10.2679 18.3389 10.2352L21.0002 8.83597L23.6616 10.2352C23.7342 10.2739 23.8186 10.2867 23.8995 10.2727C24.1034 10.2375 24.2405 10.0442 24.2053 9.84026L23.6967 6.87659L25.8495 4.77776C25.908 4.72034 25.9467 4.64534 25.9584 4.56331C25.9901 4.35823 25.8471 4.16839 25.642 4.13792V4.13792Z" fill="#FFC416"/>
<path d="M39.642 4.13792L36.6666 3.7055L35.3366 1.00901C35.3002 0.935185 35.2405 0.875419 35.1666 0.839091C34.9815 0.747685 34.7565 0.823857 34.6639 1.00901L33.3338 3.7055L30.3584 4.13792C30.2764 4.14964 30.2014 4.18831 30.144 4.2469C30.0746 4.31826 30.0363 4.41425 30.0376 4.51379C30.0389 4.61333 30.0797 4.70828 30.151 4.77776L32.3038 6.87659L31.7952 9.84026C31.7832 9.9092 31.7909 9.98011 31.8172 10.0449C31.8435 10.1098 31.8875 10.1659 31.9441 10.207C32.0007 10.2481 32.0677 10.2726 32.1375 10.2776C32.2072 10.2825 32.277 10.2679 32.3389 10.2352L35.0002 8.83597L37.6616 10.2352C37.7342 10.2739 37.8186 10.2867 37.8995 10.2727C38.1034 10.2375 38.2405 10.0442 38.2053 9.84026L37.6967 6.87659L39.8495 4.77776C39.908 4.72034 39.9467 4.64534 39.9584 4.56331C39.9901 4.35823 39.8471 4.16839 39.642 4.13792V4.13792Z" fill="#FFC416"/>
<path d="M53.642 4.13792L50.6666 3.7055L49.3366 1.00901C49.3002 0.935185 49.2405 0.875419 49.1666 0.839091C48.9815 0.747685 48.7565 0.823857 48.6639 1.00901L47.3338 3.7055L44.3584 4.13792C44.2764 4.14964 44.2014 4.18831 44.144 4.2469C44.0746 4.31826 44.0363 4.41425 44.0376 4.51379C44.0389 4.61333 44.0797 4.70828 44.151 4.77776L46.3038 6.87659L45.7952 9.84026C45.7832 9.9092 45.7909 9.98011 45.8172 10.0449C45.8435 10.1098 45.8875 10.1659 45.9441 10.207C46.0007 10.2481 46.0677 10.2726 46.1375 10.2776C46.2072 10.2825 46.277 10.2679 46.3389 10.2352L49.0002 8.83597L51.6616 10.2352C51.7342 10.2739 51.8186 10.2867 51.8995 10.2727C52.1034 10.2375 52.2405 10.0442 52.2053 9.84026L51.6967 6.87659L53.8495 4.77776C53.908 4.72034 53.9467 4.64534 53.9584 4.56331C53.9901 4.35823 53.8471 4.16839 53.642 4.13792V4.13792Z" fill="#FFC416"/>
<path d="M68.6044 4.3375L65.629 3.90508L64.299 1.2086C64.2626 1.13477 64.2029 1.075 64.129 1.03868C63.9439 0.94727 63.7189 1.02344 63.6263 1.2086L62.2962 3.90508L59.3208 4.3375C59.2388 4.34922 59.1638 4.38789 59.1064 4.44649C59.037 4.51784 58.9987 4.61383 59 4.71337C59.0014 4.81291 59.0421 4.90786 59.1134 4.97735L61.2662 7.07618L60.7576 10.0398C60.7456 10.1088 60.7533 10.1797 60.7796 10.2445C60.8059 10.3093 60.8499 10.3655 60.9065 10.4066C60.9631 10.4477 61.0301 10.4722 61.0999 10.4771C61.1697 10.4821 61.2394 10.4674 61.3013 10.4348L63.9626 9.03555L66.624 10.4348C66.6966 10.4734 66.781 10.4863 66.8619 10.4723C67.0658 10.4371 67.2029 10.2438 67.1677 10.0398L66.6591 7.07618L68.8119 4.97735C68.8705 4.91993 68.9091 4.84493 68.9208 4.76289C68.9525 4.55782 68.8095 4.36797 68.6044 4.3375V4.3375Z" fill="#B2B2B2"/>
</svg>
