<svg width="69" height="12" viewBox="0 0 69 12" fill="none" xmlns="http://www.w3.org/2000/svg">
<path d="M10.6418 4.13792L7.6664 3.7055L6.33632 1.00901C6.29999 0.935185 6.24023 0.875419 6.1664 0.839091C5.98124 0.747685 5.75624 0.823857 5.66366 1.00901L4.33358 3.7055L1.35819 4.13792C1.27616 4.14964 1.20116 4.18831 1.14374 4.2469C1.07432 4.31826 1.03607 4.41425 1.03739 4.51379C1.0387 4.61333 1.07949 4.70828 1.15077 4.77776L3.30351 6.87659L2.79491 9.84026C2.78299 9.9092 2.79062 9.98011 2.81694 10.0449C2.84325 10.1098 2.88721 10.1659 2.94382 10.207C3.00043 10.2481 3.06743 10.2726 3.13722 10.2776C3.20701 10.2825 3.27679 10.2679 3.33866 10.2352L5.99999 8.83597L8.66132 10.2352C8.73398 10.2739 8.81835 10.2867 8.89921 10.2727C9.10312 10.2375 9.24023 10.0442 9.20507 9.84026L8.69648 6.87659L10.8492 4.77776C10.9078 4.72034 10.9465 4.64534 10.9582 4.56331C10.9898 4.35823 10.8469 4.16839 10.6418 4.13792Z" fill="#FFC416"/>
<path d="M25.6418 4.13792L22.6664 3.7055L21.3363 1.00901C21.3 0.935185 21.2402 0.875419 21.1664 0.839091C20.9812 0.747685 20.7562 0.823857 20.6637 1.00901L19.3336 3.7055L16.3582 4.13792C16.2762 4.14964 16.2012 4.18831 16.1437 4.2469C16.0743 4.31826 16.0361 4.41425 16.0374 4.51379C16.0387 4.61333 16.0795 4.70828 16.1508 4.77776L18.3035 6.87659L17.7949 9.84026C17.783 9.9092 17.7906 9.98011 17.8169 10.0449C17.8433 10.1098 17.8872 10.1659 17.9438 10.207C18.0004 10.2481 18.0674 10.2726 18.1372 10.2776C18.207 10.2825 18.2768 10.2679 18.3387 10.2352L21 8.83597L23.6613 10.2352C23.734 10.2739 23.8184 10.2867 23.8992 10.2727C24.1031 10.2375 24.2402 10.0442 24.2051 9.84026L23.6965 6.87659L25.8492 4.77776C25.9078 4.72034 25.9465 4.64534 25.9582 4.56331C25.9898 4.35823 25.8469 4.16839 25.6418 4.13792Z" fill="#FFC416"/>
<path d="M39.6418 4.13792L36.6664 3.7055L35.3363 1.00901C35.3 0.935185 35.2402 0.875419 35.1664 0.839091C34.9812 0.747685 34.7562 0.823857 34.6637 1.00901L33.3336 3.7055L30.3582 4.13792C30.2762 4.14964 30.2012 4.18831 30.1437 4.2469C30.0743 4.31826 30.0361 4.41425 30.0374 4.51379C30.0387 4.61333 30.0795 4.70828 30.1508 4.77776L32.3035 6.87659L31.7949 9.84026C31.783 9.9092 31.7906 9.98011 31.8169 10.0449C31.8433 10.1098 31.8872 10.1659 31.9438 10.207C32.0004 10.2481 32.0674 10.2726 32.1372 10.2776C32.207 10.2825 32.2768 10.2679 32.3387 10.2352L35 8.83597L37.6613 10.2352C37.734 10.2739 37.8184 10.2867 37.8992 10.2727C38.1031 10.2375 38.2402 10.0442 38.2051 9.84026L37.6965 6.87659L39.8492 4.77776C39.9078 4.72034 39.9465 4.64534 39.9582 4.56331C39.9898 4.35823 39.8469 4.16839 39.6418 4.13792Z" fill="#FFC416"/>
<path d="M53.6418 4.13792L50.6664 3.7055L49.3363 1.00901C49.3 0.935185 49.2402 0.875419 49.1664 0.839091C48.9812 0.747685 48.7562 0.823857 48.6637 1.00901L47.3336 3.7055L44.3582 4.13792C44.2762 4.14964 44.2012 4.18831 44.1437 4.2469C44.0743 4.31826 44.0361 4.41425 44.0374 4.51379C44.0387 4.61333 44.0795 4.70828 44.1508 4.77776L46.3035 6.87659L45.7949 9.84026C45.783 9.9092 45.7906 9.98011 45.8169 10.0449C45.8433 10.1098 45.8872 10.1659 45.9438 10.207C46.0004 10.2481 46.0674 10.2726 46.1372 10.2776C46.207 10.2825 46.2768 10.2679 46.3387 10.2352L49 8.83597L51.6613 10.2352C51.734 10.2739 51.8184 10.2867 51.8992 10.2727C52.1031 10.2375 52.2402 10.0442 52.2051 9.84026L51.6965 6.87659L53.8492 4.77776C53.9078 4.72034 53.9465 4.64534 53.9582 4.56331C53.9898 4.35823 53.8469 4.16839 53.6418 4.13792Z" fill="#FFC416"/>
<path d="M67.6418 4.13792L64.6664 3.7055L63.3363 1.00901C63.3 0.935185 63.2402 0.875419 63.1664 0.839091C62.9812 0.747685 62.7562 0.823857 62.6637 1.00901L61.3336 3.7055L58.3582 4.13792C58.2762 4.14964 58.2012 4.18831 58.1437 4.2469C58.0743 4.31826 58.0361 4.41425 58.0374 4.51379C58.0387 4.61333 58.0795 4.70828 58.1508 4.77776L60.3035 6.87659L59.7949 9.84026C59.783 9.9092 59.7906 9.98011 59.8169 10.0449C59.8433 10.1098 59.8872 10.1659 59.9438 10.207C60.0004 10.2481 60.0674 10.2726 60.1372 10.2776C60.207 10.2825 60.2768 10.2679 60.3387 10.2352L63 8.83597L65.6613 10.2352C65.734 10.2739 65.8184 10.2867 65.8992 10.2727C66.1031 10.2375 66.2402 10.0442 66.2051 9.84026L65.6965 6.87659L67.8492 4.77776C67.9078 4.72034 67.9465 4.64534 67.9582 4.56331C67.9898 4.35823 67.8469 4.16839 67.6418 4.13792Z" fill="#FFC416"/>
</svg>
