<svg width="56" height="12" viewBox="0 0 56 12" fill="none" xmlns="http://www.w3.org/2000/svg">
<circle cx="6" cy="6" r="6" fill="#151875"/>
<path d="M6.68714 8.6391V6.01638H7.57194L7.70346 4.9895H6.68714V4.33542C6.68714 4.0391 6.7697 3.83622 7.19498 3.83622H7.73386V2.9207C7.47166 2.8926 7.20811 2.87903 6.94442 2.88006C6.16234 2.88006 5.62538 3.3575 5.62538 4.23398V4.98758H4.74634V6.01446H5.6273V8.6391H6.68714Z" fill="white"/>
<circle cx="50" cy="6" r="6" fill="#151875"/>
<g clip-path="url(#clip0_319_10982)">
<path d="M53.4859 3.49978C53.2187 3.61818 52.9317 3.69818 52.6299 3.73434C52.9413 3.54803 53.1742 3.25481 53.2853 2.90938C52.9927 3.08314 52.6726 3.20544 52.3387 3.27098C52.1142 3.03126 51.8168 2.87236 51.4927 2.81897C51.1686 2.76558 50.836 2.82067 50.5464 2.9757C50.2569 3.13073 50.0266 3.37701 49.8914 3.67632C49.7561 3.97563 49.7235 4.31122 49.7985 4.63098C49.2058 4.60122 48.6259 4.44715 48.0966 4.17879C47.5672 3.91042 47.1002 3.53375 46.7259 3.07322C46.5979 3.29402 46.5243 3.55002 46.5243 3.82266C46.5241 4.0681 46.5846 4.30978 46.7003 4.52625C46.8159 4.74273 46.9832 4.92731 47.1873 5.06362C46.9506 5.05609 46.7191 4.99213 46.5121 4.87706V4.89626C46.5121 5.2405 46.6312 5.57414 46.8491 5.84058C47.0671 6.10701 47.3706 6.28984 47.708 6.35802C47.4884 6.41745 47.2582 6.4262 47.0347 6.38362C47.1299 6.67981 47.3153 6.93883 47.565 7.12439C47.8148 7.30996 48.1163 7.4128 48.4273 7.4185C47.8993 7.83303 47.2471 8.05789 46.5758 8.0569C46.4569 8.05693 46.3381 8.04998 46.22 8.0361C46.9014 8.47423 47.6946 8.70676 48.5048 8.70586C51.2472 8.70586 52.7464 6.4345 52.7464 4.46458C52.7464 4.40058 52.7448 4.33594 52.7419 4.27194C53.0335 4.06105 53.2852 3.79991 53.4853 3.50074L53.4859 3.49978Z" fill="white"/>
</g>
<circle cx="28" cy="6" r="6" fill="#FB2E86"/>
<path d="M30.6227 4.5777C30.6194 4.33534 30.5741 4.09539 30.4886 3.86858C30.4145 3.67727 30.3012 3.50353 30.1562 3.35845C30.0111 3.21337 29.8373 3.10015 29.646 3.02602C29.4221 2.94198 29.1856 2.89653 28.9465 2.89162C28.6387 2.87786 28.5411 2.87402 27.7596 2.87402C26.9782 2.87402 26.878 2.87402 26.5724 2.89162C26.3334 2.89657 26.097 2.94201 25.8732 3.02602C25.6819 3.1001 25.5081 3.2133 25.363 3.35839C25.2179 3.50347 25.1047 3.67724 25.0307 3.86858C24.9464 4.09231 24.9011 4.32878 24.8966 4.56778C24.8828 4.87594 24.8787 4.97354 24.8787 5.75498C24.8787 6.53642 24.8787 6.63626 24.8966 6.94218C24.9014 7.18154 24.9465 7.4177 25.0307 7.64202C25.1049 7.83331 25.2181 8.00701 25.3633 8.15203C25.5084 8.29705 25.6822 8.41021 25.8735 8.48426C26.0967 8.57169 26.3332 8.62038 26.5727 8.62826C26.8809 8.64202 26.9785 8.64618 27.7599 8.64618C28.5414 8.64618 28.6415 8.64618 28.9471 8.62826C29.1862 8.62355 29.4228 8.57822 29.6467 8.49418C29.8379 8.41997 30.0116 8.30672 30.1567 8.16165C30.3018 8.01659 30.415 7.84288 30.4892 7.65162C30.5734 7.42762 30.6185 7.19146 30.6233 6.95178C30.6371 6.64394 30.6412 6.54634 30.6412 5.76458C30.6406 4.98314 30.6406 4.88394 30.6227 4.5777ZM27.7577 7.23274C26.9404 7.23274 26.2783 6.57066 26.2783 5.75338C26.2783 4.9361 26.9404 4.27402 27.7577 4.27402C28.1501 4.27402 28.5263 4.42988 28.8038 4.70732C29.0812 4.98475 29.2371 5.36103 29.2371 5.75338C29.2371 6.14573 29.0812 6.52201 28.8038 6.79945C28.5263 7.07688 28.1501 7.23274 27.7577 7.23274ZM29.2959 4.56426C29.1049 4.56426 28.951 4.41002 28.951 4.2193C28.951 4.17402 28.9599 4.12919 28.9772 4.08735C28.9946 4.04552 29.02 4.00751 29.052 3.97549C29.084 3.94348 29.122 3.91808 29.1638 3.90075C29.2057 3.88342 29.2505 3.8745 29.2958 3.8745C29.3411 3.8745 29.3859 3.88342 29.4277 3.90075C29.4696 3.91808 29.5076 3.94348 29.5396 3.97549C29.5716 4.00751 29.597 4.04552 29.6143 4.08735C29.6317 4.12919 29.6406 4.17402 29.6406 4.2193C29.6406 4.41002 29.4863 4.56426 29.2959 4.56426Z" fill="white"/>
<path d="M27.7576 6.71416C28.2883 6.71416 28.7186 6.28392 28.7186 5.7532C28.7186 5.22247 28.2883 4.79224 27.7576 4.79224C27.2269 4.79224 26.7966 5.22247 26.7966 5.7532C26.7966 6.28392 27.2269 6.71416 27.7576 6.71416Z" fill="white"/>
<defs>
<clipPath id="clip0_319_10982">
<rect width="7.68" height="7.68" fill="white" transform="translate(45.9199 1.92001)"/>
</clipPath>
</defs>
</svg>
