<svg width="9" height="9" viewBox="0 0 9 9" fill="none" xmlns="http://www.w3.org/2000/svg">
<g clip-path="url(#clip0_497_3692)">
<path d="M4.36482 6.86854C4.43391 6.86854 4.50145 6.84913 4.5589 6.81276C4.61634 6.77639 4.66112 6.7247 4.68756 6.66423C4.714 6.60375 4.72092 6.5372 4.70744 6.473C4.69396 6.4088 4.66069 6.34983 4.61183 6.30354C4.56298 6.25726 4.50074 6.22573 4.43297 6.21296C4.36521 6.20019 4.29497 6.20675 4.23114 6.2318C4.16731 6.25685 4.11276 6.29927 4.07437 6.3537C4.03599 6.40812 4.0155 6.47211 4.0155 6.53757C4.0155 6.62535 4.0523 6.70953 4.11782 6.7716C4.18333 6.83367 4.27218 6.86854 4.36482 6.86854ZM6.11145 6.86854C6.18054 6.86854 6.24807 6.84913 6.30552 6.81276C6.36297 6.77639 6.40774 6.7247 6.43418 6.66423C6.46062 6.60375 6.46754 6.5372 6.45406 6.473C6.44058 6.4088 6.40731 6.34983 6.35846 6.30354C6.3096 6.25726 6.24736 6.22573 6.1796 6.21296C6.11183 6.20019 6.0416 6.20675 5.97777 6.2318C5.91393 6.25685 5.85938 6.29927 5.82099 6.3537C5.78261 6.40812 5.76212 6.47211 5.76212 6.53757C5.76212 6.62535 5.79893 6.70953 5.86444 6.7716C5.92995 6.83367 6.0188 6.86854 6.11145 6.86854ZM6.11145 5.54467C6.18054 5.54467 6.24807 5.52526 6.30552 5.48889C6.36297 5.45252 6.40774 5.40084 6.43418 5.34036C6.46062 5.27988 6.46754 5.21334 6.45406 5.14913C6.44058 5.08493 6.40731 5.02596 6.35846 4.97967C6.3096 4.93339 6.24736 4.90187 6.1796 4.8891C6.11183 4.87633 6.0416 4.88288 5.97777 4.90793C5.91393 4.93298 5.85938 4.9754 5.82099 5.02983C5.78261 5.08425 5.76212 5.14824 5.76212 5.2137C5.76212 5.30148 5.79893 5.38566 5.86444 5.44773C5.92995 5.5098 6.0188 5.54467 6.11145 5.54467ZM4.36482 5.54467C4.43391 5.54467 4.50145 5.52526 4.5589 5.48889C4.61634 5.45252 4.66112 5.40084 4.68756 5.34036C4.714 5.27988 4.72092 5.21334 4.70744 5.14913C4.69396 5.08493 4.66069 5.02596 4.61183 4.97967C4.56298 4.93339 4.50074 4.90187 4.43297 4.8891C4.36521 4.87633 4.29497 4.88288 4.23114 4.90793C4.16731 4.93298 4.11276 4.9754 4.07437 5.02983C4.03599 5.08425 4.0155 5.14824 4.0155 5.2137C4.0155 5.30148 4.0523 5.38566 4.11782 5.44773C4.18333 5.5098 4.27218 5.54467 4.36482 5.54467ZM6.81009 1.57307H6.46077V1.2421C6.46077 1.15432 6.42397 1.07014 6.35846 1.00807C6.29294 0.946002 6.20409 0.911133 6.11145 0.911133C6.0188 0.911133 5.92995 0.946002 5.86444 1.00807C5.79893 1.07014 5.76212 1.15432 5.76212 1.2421V1.57307H2.96753V1.2421C2.96753 1.15432 2.93072 1.07014 2.86521 1.00807C2.7997 0.946002 2.71085 0.911133 2.6182 0.911133C2.52556 0.911133 2.4367 0.946002 2.37119 1.00807C2.30568 1.07014 2.26888 1.15432 2.26888 1.2421V1.57307H1.91955C1.64162 1.57307 1.37506 1.67768 1.17853 1.86388C0.981993 2.05009 0.871582 2.30263 0.871582 2.56597V7.1995C0.871582 7.46284 0.981993 7.71539 1.17853 7.90159C1.37506 8.0878 1.64162 8.19241 1.91955 8.19241H6.81009C7.08803 8.19241 7.35459 8.0878 7.55112 7.90159C7.74766 7.71539 7.85807 7.46284 7.85807 7.1995V2.56597C7.85807 2.30263 7.74766 2.05009 7.55112 1.86388C7.35459 1.67768 7.08803 1.57307 6.81009 1.57307ZM7.15942 7.1995C7.15942 7.28728 7.12262 7.37147 7.0571 7.43353C6.99159 7.4956 6.90274 7.53047 6.81009 7.53047H1.91955C1.82691 7.53047 1.73806 7.4956 1.67255 7.43353C1.60703 7.37147 1.57023 7.28728 1.57023 7.1995V4.2208H7.15942V7.1995ZM7.15942 3.55887H1.57023V2.56597C1.57023 2.47819 1.60703 2.39401 1.67255 2.33194C1.73806 2.26987 1.82691 2.235 1.91955 2.235H2.26888V2.56597C2.26888 2.65375 2.30568 2.73793 2.37119 2.8C2.4367 2.86206 2.52556 2.89693 2.6182 2.89693C2.71085 2.89693 2.7997 2.86206 2.86521 2.8C2.93072 2.73793 2.96753 2.65375 2.96753 2.56597V2.235H5.76212V2.56597C5.76212 2.65375 5.79893 2.73793 5.86444 2.8C5.92995 2.86206 6.0188 2.89693 6.11145 2.89693C6.20409 2.89693 6.29294 2.86206 6.35846 2.8C6.42397 2.73793 6.46077 2.65375 6.46077 2.56597V2.235H6.81009C6.90274 2.235 6.99159 2.26987 7.0571 2.33194C7.12262 2.39401 7.15942 2.47819 7.15942 2.56597V3.55887ZM2.6182 5.54467C2.68729 5.54467 2.75483 5.52526 2.81228 5.48889C2.86972 5.45252 2.9145 5.40084 2.94094 5.34036C2.96738 5.27988 2.97429 5.21334 2.96082 5.14913C2.94734 5.08493 2.91407 5.02596 2.86521 4.97967C2.81636 4.93339 2.75412 4.90187 2.68635 4.8891C2.61859 4.87633 2.54835 4.88288 2.48452 4.90793C2.42069 4.93298 2.36614 4.9754 2.32775 5.02983C2.28937 5.08425 2.26888 5.14824 2.26888 5.2137C2.26888 5.30148 2.30568 5.38566 2.37119 5.44773C2.4367 5.5098 2.52556 5.54467 2.6182 5.54467ZM2.6182 6.86854C2.68729 6.86854 2.75483 6.84913 2.81228 6.81276C2.86972 6.77639 2.9145 6.7247 2.94094 6.66423C2.96738 6.60375 2.97429 6.5372 2.96082 6.473C2.94734 6.4088 2.91407 6.34983 2.86521 6.30354C2.81636 6.25726 2.75412 6.22573 2.68635 6.21296C2.61859 6.20019 2.54835 6.20675 2.48452 6.2318C2.42069 6.25685 2.36614 6.29927 2.32775 6.3537C2.28937 6.40812 2.26888 6.47211 2.26888 6.53757C2.26888 6.62535 2.30568 6.70953 2.37119 6.7716C2.4367 6.83367 2.52556 6.86854 2.6182 6.86854Z" fill="#FFA454"/>
</g>
<defs>
<clipPath id="clip0_497_3692">
<rect width="8.38378" height="7.94321" fill="white" transform="translate(0.172974 0.580078)"/>
</clipPath>
</defs>
</svg>
