<svg width="16" height="16" viewBox="0 0 16 16" fill="none" xmlns="http://www.w3.org/2000/svg">
<rect width="16" height="16" fill="#EEEFFB"/>
<path d="M11.0439 14.6662H11.0626C11.4146 14.6662 11.7473 14.5275 11.9993 14.2755L13.8073 12.4675C13.8692 12.4056 13.9184 12.3322 13.9519 12.2513C13.9855 12.1704 14.0027 12.0837 14.0027 11.9962C14.0027 11.9086 13.9855 11.8219 13.9519 11.741C13.9184 11.6602 13.8692 11.5867 13.8073 11.5248L11.1406 8.85816C11.0787 8.7962 11.0053 8.74704 10.9244 8.7135C10.8435 8.67996 10.7568 8.6627 10.6693 8.6627C10.5817 8.6627 10.495 8.67996 10.4141 8.7135C10.3333 8.74704 10.2598 8.7962 10.1979 8.85816L9.13527 9.92083C8.64261 9.77416 7.72327 9.44083 7.14061 8.85816C6.55794 8.2755 6.22461 7.35616 6.07794 6.8635L7.14061 5.80083C7.20257 5.73897 7.25173 5.6655 7.28527 5.58462C7.31881 5.50375 7.33608 5.41705 7.33608 5.3295C7.33608 5.24194 7.31881 5.15524 7.28527 5.07437C7.25173 4.99349 7.20257 4.92002 7.14061 4.85816L4.47394 2.1915C4.34649 2.0712 4.17787 2.00419 4.00261 2.00419C3.82735 2.00419 3.65872 2.0712 3.53127 2.1915L1.72394 3.9995C1.47061 4.25283 1.32794 4.60083 1.33327 4.95616C1.34861 5.9055 1.59994 9.20283 4.19861 11.8015C6.79727 14.4002 10.0946 14.6508 11.0439 14.6662V14.6662ZM4.00327 3.6055L5.72727 5.3295L4.86527 6.1915C4.78683 6.26972 4.72921 6.36633 4.69765 6.47253C4.66609 6.57872 4.66161 6.69113 4.68461 6.7995C4.70061 6.87616 5.09194 8.69416 6.19861 9.80083C7.30527 10.9075 9.12327 11.2988 9.19994 11.3148C9.30831 11.3379 9.42074 11.3335 9.52696 11.302C9.63318 11.2704 9.72978 11.2127 9.80794 11.1342L10.6699 10.2722L12.3939 11.9962L11.0566 13.3328C10.2246 13.3188 7.37794 13.0955 5.14127 10.8582C2.89727 8.61416 2.67994 5.7575 2.66661 4.94216L4.00327 3.6055ZM13.3326 7.33283H14.6659C14.6659 3.91283 12.0839 1.3335 8.65927 1.3335V2.66683C11.3673 2.66683 13.3326 4.62883 13.3326 7.33283V7.33283Z" fill="#8A8FB9"/>
<path d="M8.66602 5.33333C10.068 5.33333 10.666 5.93133 10.666 7.33333H11.9993C11.9993 5.18333 10.816 4 8.66602 4V5.33333V5.33333Z" fill="#8A8FB9"/>
</svg>
