<svg width="23" height="20" viewBox="0 0 23 20" fill="none" xmlns="http://www.w3.org/2000/svg">
<ellipse cx="11.5187" cy="10.1119" rx="11.215" ry="9.75497" fill="#151875"/>
<path d="M16.4217 7.79968C16.4157 7.40564 16.3309 7.01552 16.1711 6.64677C16.0326 6.33573 15.8209 6.05325 15.5498 5.81738C15.2786 5.58151 14.9538 5.39743 14.5963 5.27691C14.1778 5.14027 13.7357 5.06638 13.2887 5.0584C12.7133 5.03603 12.5309 5.02979 11.0703 5.02979C9.60964 5.02979 9.42242 5.02979 8.85121 5.0584C8.4045 5.06644 7.96259 5.14032 7.54429 5.27691C7.18665 5.39735 6.86184 5.58139 6.59065 5.81728C6.31947 6.05316 6.10788 6.33568 5.96941 6.64677C5.81201 7.0105 5.72725 7.39497 5.7188 7.78355C5.69308 8.28456 5.6853 8.44324 5.6853 9.71373C5.6853 10.9842 5.6853 11.1465 5.7188 11.6439C5.72777 12.0331 5.81211 12.417 5.96941 12.7817C6.10811 13.0927 6.31986 13.3751 6.59113 13.6109C6.86241 13.8467 7.18725 14.0307 7.54489 14.1511C7.96205 14.2932 8.40403 14.3724 8.85181 14.3852C9.42781 14.4076 9.61024 14.4143 11.0709 14.4143C12.5315 14.4143 12.7187 14.4143 13.2899 14.3852C13.7368 14.3775 14.179 14.3038 14.5975 14.1672C14.9549 14.0465 15.2796 13.8624 15.5508 13.6266C15.8219 13.3907 16.0336 13.1083 16.1723 12.7973C16.3296 12.4332 16.414 12.0492 16.4229 11.6595C16.4487 11.159 16.4564 11.0003 16.4564 9.72934C16.4552 8.45885 16.4552 8.29757 16.4217 7.79968ZM11.0667 12.1163C9.53906 12.1163 8.30153 11.0399 8.30153 9.71113C8.30153 8.38237 9.53906 7.30594 11.0667 7.30594C11.8001 7.30594 12.5034 7.55935 13.0219 8.01041C13.5405 8.46147 13.8318 9.07324 13.8318 9.71113C13.8318 10.349 13.5405 10.9608 13.0219 11.4119C12.5034 11.8629 11.8001 12.1163 11.0667 12.1163ZM13.9419 7.77783C13.5848 7.77783 13.2971 7.52706 13.2971 7.21698C13.2971 7.14336 13.3138 7.07047 13.3462 7.00245C13.3786 6.93444 13.426 6.87264 13.4859 6.82059C13.5457 6.76853 13.6168 6.72724 13.695 6.69907C13.7732 6.67089 13.857 6.65639 13.9416 6.65639C14.0262 6.65639 14.11 6.67089 14.1882 6.69907C14.2664 6.72724 14.3375 6.76853 14.3973 6.82059C14.4572 6.87264 14.5046 6.93444 14.537 7.00245C14.5694 7.07047 14.5861 7.14336 14.5861 7.21698C14.5861 7.52706 14.2978 7.77783 13.9419 7.77783Z" fill="white"/>
<path d="M11.0667 11.2731C12.0587 11.2731 12.8629 10.5737 12.8629 9.71079C12.8629 8.84793 12.0587 8.14844 11.0667 8.14844C10.0747 8.14844 9.27051 8.84793 9.27051 9.71079C9.27051 10.5737 10.0747 11.2731 11.0667 11.2731Z" fill="white"/>
</svg>
