<svg width="65" height="65" viewBox="0 0 65 65" fill="none" xmlns="http://www.w3.org/2000/svg">
<g clip-path="url(#clip0_317_3310)">
<rect width="65" height="65" fill="white"/>
<path d="M15.9171 36.5373V47.1666H53.275C54.3424 47.1666 55.2076 46.3013 55.2076 45.234C55.2076 44.2956 55.2076 37.4738 55.2076 36.5373L35.5623 33.9603L15.9171 36.5373Z" fill="#8B9BA9"/>
<path d="M51.3423 36.022V43.3015H15.9171V47.1667H53.275C54.3424 47.1667 55.2076 46.3014 55.2076 45.2341C55.2076 44.3448 55.2076 37.4096 55.2076 36.5373L51.3423 36.022Z" fill="#6C7A88"/>
<path d="M56.9474 11.0692H21.7157C20.6484 11.0692 19.7831 11.9345 19.7831 13.0018V19.0244H6.89457C5.08668 19.0244 3.52024 20.2778 3.12354 22.0416L1.66081 28.5463C1.28511 30.2171 1.09546 31.9245 1.09546 33.637V47.1664H19.7831C19.7831 46.8519 19.7831 42.0719 19.7831 36.5371H56.9475C58.0148 36.5371 58.8801 35.6718 58.8801 34.6045V13.0018C58.88 11.9343 58.0149 11.0692 56.9474 11.0692Z" fill="#FF7E40"/>
<path d="M64.034 28.2374H58.8801V24.7694H61.4571C61.9909 24.7694 62.4234 24.3368 62.4234 23.8031C62.4234 23.2695 61.9909 22.8368 61.4571 22.8368H58.8801V19.3688H62.7455C63.2793 19.3688 63.7118 18.9362 63.7118 18.4025C63.7118 17.8689 63.2793 17.4362 62.7455 17.4362H58.8801V13.9681H64.034C64.5678 13.9681 65.0003 13.5354 65.0003 13.0018C65.0003 12.4681 64.5678 12.0355 64.034 12.0355H58.6195C58.2852 11.4584 57.6625 11.0692 56.9475 11.0692H55.0149V32.672H19.7831C19.7831 25.8735 19.7831 19.2079 19.7831 19.0243H15.9179V36.5372H13.019C10.2018 36.5372 7.63901 37.641 5.735 39.4361H1.09546V47.1665H19.7831C19.7831 46.9044 19.7831 42.1025 19.7831 36.5372H31.6949H56.9475C57.6625 36.5372 58.2852 36.148 58.6195 35.5709H62.7455C63.2793 35.5709 63.7118 35.1383 63.7118 34.6046C63.7118 34.0709 63.2793 33.6383 62.7455 33.6383H58.8801V30.1702H64.034C64.5678 30.1702 65.0003 29.7375 65.0003 29.2039C65.0003 28.6702 64.5678 28.2374 64.034 28.2374Z" fill="#FF6344"/>
<path d="M0.966303 47.1663H8.03913V43.3011H0.966303C0.432646 43.3011 0 43.7338 0 44.2674V46.2C0 46.7338 0.432646 47.1663 0.966303 47.1663Z" fill="#8B9BA9"/>
<path d="M15.9179 22.8895H6.66405L4.82666 31.0602H15.9179V22.8895Z" fill="#9DC6FB"/>
<path d="M12.2832 27.195H5.69582L4.82666 31.0602H15.9179V22.8895H12.2832V27.195Z" fill="#80B4FB"/>
<path d="M45.8667 53.9305C49.6024 53.9305 52.6308 50.9021 52.6308 47.1663C52.6308 43.4306 49.6024 40.4022 45.8667 40.4022C42.1309 40.4022 39.1025 43.4306 39.1025 47.1663C39.1025 50.9021 42.1309 53.9305 45.8667 53.9305Z" fill="#4D5967"/>
<path d="M47.2501 40.5449C46.4572 42.0097 46.6789 43.8784 47.9171 45.1164L43.8174 49.2161C42.5793 47.978 40.7106 47.7561 39.2457 48.5491C39.8858 51.6177 42.6113 53.9304 45.8672 53.9304C49.597 53.9304 52.6313 50.8961 52.6313 47.1663C52.6312 43.9104 50.3187 41.185 47.2501 40.5449Z" fill="#35404A"/>
<path d="M45.8664 50.0654C47.4675 50.0654 48.7654 48.7675 48.7654 47.1665C48.7654 45.5655 47.4675 44.2676 45.8664 44.2676C44.2654 44.2676 42.9675 45.5655 42.9675 47.1665C42.9675 48.7675 44.2654 50.0654 45.8664 50.0654Z" fill="#FFF9EB"/>
<path d="M13.0188 53.9305C16.7545 53.9305 19.7829 50.9021 19.7829 47.1663C19.7829 43.4306 16.7545 40.4022 13.0188 40.4022C9.28304 40.4022 6.25464 43.4306 6.25464 47.1663C6.25464 50.9021 9.28304 53.9305 13.0188 53.9305Z" fill="#4D5967"/>
<path d="M14.4019 40.5449C13.609 42.0097 13.8308 43.8784 15.0689 45.1164L10.9692 49.2161C9.7312 47.978 7.8625 47.7561 6.39758 48.5491C7.03766 51.6177 9.76315 53.9304 13.0191 53.9304C16.7489 53.9304 19.7832 50.8961 19.7832 47.1663C19.7832 43.9104 17.4706 41.185 14.4019 40.5449Z" fill="#35404A"/>
<path d="M13.0185 50.0654C14.6196 50.0654 15.9175 48.7675 15.9175 47.1665C15.9175 45.5655 14.6196 44.2676 13.0185 44.2676C11.4175 44.2676 10.1196 45.5655 10.1196 47.1665C10.1196 48.7675 11.4175 50.0654 13.0185 50.0654Z" fill="#FFF9EB"/>
<path d="M28.5606 21.8712V22.8375H29.7845C30.3182 22.8375 30.7505 23.2698 30.7505 23.8036C30.7505 24.3374 30.3182 24.7699 29.7845 24.7699H28.5606V26.7023C28.5606 27.2361 28.128 27.6686 27.5945 27.6686C27.0609 27.6686 26.6284 27.2362 26.6284 26.7023V20.9051C26.6284 20.3714 27.0609 19.9391 27.5945 19.9391H30.5574C31.0911 19.9391 31.5235 20.3714 31.5235 20.9051C31.5235 21.4389 31.0911 21.8714 30.5574 21.8714H28.5606V21.8712Z" fill="#FFF9EB"/>
<path d="M37.7694 26.0216C38.1449 26.4004 38.1424 27.0122 37.7636 27.3879C37.575 27.5746 37.3292 27.668 37.0832 27.668C36.8346 27.668 36.586 27.5727 36.3971 27.3821L34.7645 25.7357H34.2491V26.7017C34.2491 27.2355 33.8165 27.668 33.2829 27.668C32.7494 27.668 32.3169 27.2356 32.3169 26.7017V20.9045C32.3169 20.3709 32.7494 19.9385 33.2829 19.9385H35.1672C36.7565 19.9385 38.0495 21.2389 38.0495 22.837C38.0495 23.7799 37.5992 24.6187 36.9036 25.1485L37.7694 26.0216ZM36.117 22.837C36.117 22.3041 35.6908 21.8707 35.1672 21.8707H34.2491V23.8031H35.1672C35.6908 23.8031 36.117 23.3696 36.117 22.837Z" fill="#FFF9EB"/>
<path d="M44.0383 26.7016C44.0383 27.2353 43.606 27.6679 43.0723 27.6679H40.1094C39.5758 27.6679 39.1433 27.2355 39.1433 26.7016V20.9044C39.1433 20.3707 39.5758 19.9383 40.1094 19.9383H43.0723C43.606 19.9383 44.0383 20.3707 44.0383 20.9044C44.0383 21.4382 43.606 21.8707 43.0723 21.8707H41.0755V22.837H42.2994C42.833 22.837 43.2654 23.2694 43.2654 23.8032C43.2654 24.3369 42.833 24.7695 42.2994 24.7695H41.0755V25.7356H43.0723C43.606 25.7355 44.0383 26.1679 44.0383 26.7016Z" fill="#FFF9EB"/>
<path d="M50.0339 26.7016C50.0339 27.2353 49.6016 27.6679 49.0679 27.6679H46.105C45.5714 27.6679 45.1389 27.2355 45.1389 26.7016V20.9044C45.1389 20.3707 45.5714 19.9383 46.105 19.9383H49.0679C49.6016 19.9383 50.0339 20.3707 50.0339 20.9044C50.0339 21.4382 49.6016 21.8707 49.0679 21.8707H47.0711V22.837H48.295C48.8286 22.837 49.261 23.2694 49.261 23.8032C49.261 24.3369 48.8286 24.7695 48.295 24.7695H47.0711V25.7356H49.0679C49.6016 25.7355 50.0339 26.1679 50.0339 26.7016Z" fill="#FFF9EB"/>
</g>
<defs>
<clipPath id="clip0_317_3310">
<rect width="65" height="65" fill="white"/>
</clipPath>
</defs>
</svg>
