<svg width="23" height="20" viewBox="0 0 23 20" fill="none" xmlns="http://www.w3.org/2000/svg">
<ellipse cx="11.4486" cy="10.1119" rx="11.215" ry="9.75497" fill="#151875"/>
<path d="M17.9654 6.04684C17.466 6.23934 16.9295 6.36941 16.3654 6.4282C16.9474 6.1253 17.3828 5.64856 17.5904 5.08696C17.0436 5.36945 16.4452 5.5683 15.8211 5.67486C15.4015 5.28511 14.8456 5.02677 14.2399 4.93997C13.6341 4.85316 13.0124 4.94273 12.4711 5.19478C11.9299 5.44683 11.4995 5.84725 11.2467 6.33388C10.9939 6.8205 10.9329 7.36611 11.0732 7.88598C9.96525 7.83759 8.8814 7.58712 7.89197 7.1508C6.90254 6.71448 6.02964 6.10208 5.32992 5.35333C5.09067 5.71231 4.9531 6.12853 4.9531 6.57179C4.95283 6.97083 5.06581 7.36376 5.282 7.71572C5.49819 8.06767 5.81092 8.36777 6.19243 8.58938C5.74998 8.57713 5.31729 8.47314 4.93037 8.28607V8.31728C4.93033 8.87695 5.15289 9.4194 5.56031 9.85258C5.96773 10.2858 6.5349 10.583 7.16559 10.6939C6.75514 10.7905 6.32482 10.8047 5.90712 10.7355C6.08506 11.217 6.43168 11.6381 6.89844 11.9398C7.36521 12.2415 7.92875 12.4087 8.51018 12.418C7.52317 13.092 6.30421 13.4575 5.0494 13.4559C4.82712 13.456 4.60503 13.4447 4.38428 13.4221C5.65798 14.1345 7.14067 14.5125 8.65493 14.511C13.7809 14.511 16.5832 10.8182 16.5832 7.61544C16.5832 7.51139 16.5802 7.4063 16.5748 7.30224C17.1199 6.95938 17.5904 6.5348 17.9642 6.04841L17.9654 6.04684Z" fill="white"/>
</svg>
